#N canvas 186 334 548 504 10;
#X obj 33 3 adc~;
#X obj 37 194 osc_follow, f 12;
#X obj 38 423 dac~;
#X obj 51 52 tgl 15 0 empty osc1_IO osc1\ IO 17 7 0 10 -262144 -1 -1
1 1;
#X obj 65 88 tgl 15 0 empty osc2_IO osc2\ IO 17 7 0 10 -262144 -1 -1
0 1;
#X obj 93 140 tgl 15 0 empty osc3_IO osc3\ IO 17 7 0 10 -262144 -1
-1 0 1;
#X floatatom 80 113 5 -10 10 1 osc2detune osc2_detune -, f 5;
#X floatatom 107 161 5 0.5 1.5 1 osc3detune osc3_detune -, f 5;
#N canvas 706 88 661 364 keys 0;
#X obj 124 35 spigot;
#X obj 157 4 tgl 15 0 empty keys_tgl empty 17 7 0 10 -262144 -1 -1
0 1;
#X obj 124 4 key;
#X floatatom 78 31 5 0 0 0 - - -, f 5;
#X obj 3 282 s osc1_IO;
#X obj 3 262 bng 15 250 50 0 empty empty empty 17 7 0 10 -262144 -1
-1;
#X obj 3 147 select 49 50 119 115 120 51 101 100 99;
#X obj 28 178 bng 16 250 50 0 empty empty empty 17 7 0 10 -262144 -1
-1;
#X obj 28 198 s osc2_IO;
#X obj 128 174 bng 15 250 50 0 empty empty empty 17 7 0 10 -262144
-1 -1;
#X obj 128 194 s osc3_IO;
#X obj 35 259 s osc2_detune;
#N canvas 441 380 450 300 detune_count 0;
#X obj 113 148 float;
#X obj 164 148 +;
#X obj 111 103 t b f;
#X obj 57 39 inlet;
#X obj 97 50 inlet;
#X obj 142 57 inlet;
#X obj 164 174 outlet;
#X msg 57 82 0.05;
#X msg 142 81 -0.05, f 6;
#X msg 99 70 0;
#X connect 0 0 1 0;
#X connect 1 0 0 1;
#X connect 1 0 6 0;
#X connect 2 0 0 0;
#X connect 2 1 1 1;
#X connect 3 0 7 0;
#X connect 4 0 9 0;
#X connect 5 0 8 0;
#X connect 7 0 2 0;
#X connect 8 0 2 0;
#X connect 9 0 0 0;
#X connect 9 0 2 0;
#X connect 9 0 1 0;
#X restore 35 238 pd detune_count;
#N canvas 561 573 450 300 detune_count 0;
#X obj 113 148 float;
#X obj 164 148 +;
#X obj 111 103 t b f;
#X obj 57 39 inlet;
#X obj 97 50 inlet;
#X obj 142 57 inlet;
#X obj 164 174 outlet;
#X msg 57 82 0.05;
#X msg 142 81 -0.05, f 6;
#X msg 99 70 0;
#X connect 0 0 1 0;
#X connect 1 0 0 1;
#X connect 1 0 6 0;
#X connect 2 0 0 0;
#X connect 2 1 1 1;
#X connect 3 0 7 0;
#X connect 4 0 9 0;
#X connect 5 0 8 0;
#X connect 7 0 2 0;
#X connect 8 0 2 0;
#X connect 9 0 0 0;
#X connect 9 0 2 0;
#X connect 9 0 1 0;
#X restore 135 238 pd detune_count;
#X obj 135 262 s osc3_detune;
#X text 16 132 OSCs selectors;
#N canvas 553 508 450 300 mixer_osc 0;
#X obj 113 148 float;
#X obj 164 148 +;
#X obj 111 103 t b f;
#X obj 57 39 inlet;
#X obj 97 50 inlet;
#X obj 142 57 inlet;
#X obj 165 219 outlet;
#X msg 57 82 0.05;
#X msg 142 81 -0.05, f 6;
#X msg 98 74 0;
#X obj 165 195 line;
#X obj 164 173 pack f 1000;
#X connect 0 0 1 0;
#X connect 1 0 0 1;
#X connect 1 0 11 0;
#X connect 2 0 0 0;
#X connect 2 1 1 1;
#X connect 3 0 7 0;
#X connect 4 0 9 0;
#X connect 5 0 8 0;
#X connect 7 0 2 0;
#X connect 8 0 2 0;
#X connect 9 0 0 0;
#X connect 9 0 2 0;
#X connect 9 0 1 0;
#X connect 10 0 6 0;
#X connect 11 0 10 0;
#X restore 3 77 pd mixer_osc;
#X obj 3 54 select 113 97 122;
#X obj 8 98 s osc_mixer;
#N canvas 80 629 450 300 mixer_osc 0;
#X obj 113 148 float;
#X obj 164 148 +;
#X obj 111 103 t b f;
#X obj 57 39 inlet;
#X obj 97 50 inlet;
#X obj 142 57 inlet;
#X obj 165 219 outlet;
#X msg 57 82 0.05;
#X msg 142 81 -0.05, f 6;
#X msg 99 70 0;
#X obj 165 195 line;
#X obj 164 173 pack f 1000;
#X connect 0 0 1 0;
#X connect 1 0 0 1;
#X connect 1 0 11 0;
#X connect 2 0 0 0;
#X connect 2 1 1 1;
#X connect 3 0 7 0;
#X connect 4 0 9 0;
#X connect 5 0 8 0;
#X connect 7 0 2 0;
#X connect 8 0 2 0;
#X connect 9 0 0 0;
#X connect 9 0 2 0;
#X connect 9 0 1 0;
#X connect 10 0 6 0;
#X connect 11 0 10 0;
#X restore 217 76 pd mixer_osc;
#X obj 217 99 s mic_mixer;
#X obj 188 51 select 53 116 103 98;
#X obj 270 196 bng 16 250 50 0 empty empty empty 17 7 0 10 -262144
-1 -1;
#X obj 270 216 s bit_IO;
#X obj 324 256 s bit_num;
#X msg 323 191 2500;
#X msg 371 202 1400;
#X msg 416 211 800;
#X msg 459 217 200;
#X obj 270 146 select 55 54 121 104 110;
#X obj 323 167 loadbang;
#X obj 391 117 s del_IO;
#X obj 392 13 select 56 57 105 107 44 111 108 46;
#N canvas 573 502 450 300 delaytime 0;
#X obj 113 148 float;
#X obj 164 148 +;
#X obj 111 103 t b f;
#X obj 57 39 inlet;
#X obj 97 50 inlet;
#X obj 142 57 inlet;
#X msg 57 82 20;
#X msg 142 81 -20, f 6;
#X msg 99 70 500;
#X obj 166 201 line;
#X obj 165 179 pack f 1000;
#X obj 166 227 outlet;
#X connect 0 0 1 0;
#X connect 1 0 0 1;
#X connect 1 0 10 0;
#X connect 2 0 0 0;
#X connect 2 1 1 1;
#X connect 3 0 6 0;
#X connect 4 0 8 0;
#X connect 5 0 7 0;
#X connect 6 0 2 0;
#X connect 7 0 2 0;
#X connect 8 0 0 0;
#X connect 8 0 2 0;
#X connect 8 0 1 0;
#X connect 9 0 11 0;
#X connect 10 0 9 0;
#X restore 442 49 pd delaytime;
#X obj 442 72 s del_time;
#N canvas 562 537 450 300 delayfeedback 0;
#X obj 113 148 float;
#X obj 164 148 +;
#X obj 111 103 t b f;
#X obj 57 39 inlet;
#X obj 107 20 inlet;
#X obj 142 57 inlet;
#X obj 166 201 line;
#X obj 165 179 pack f 1000;
#X obj 166 227 outlet;
#X msg 57 82 0.1;
#X msg 142 81 -0.1, f 6;
#X msg 109 40 0.25;
#X connect 0 0 1 0;
#X connect 1 0 0 1;
#X connect 1 0 7 0;
#X connect 2 0 0 0;
#X connect 2 1 1 1;
#X connect 3 0 9 0;
#X connect 4 0 11 0;
#X connect 5 0 10 0;
#X connect 6 0 8 0;
#X connect 7 0 6 0;
#X connect 9 0 2 0;
#X connect 10 0 2 0;
#X connect 11 0 0 0;
#X connect 11 0 2 0;
#X connect 11 0 1 0;
#X restore 517 72 pd delayfeedback;
#X obj 517 95 s del_feedback;
#X obj 417 94 s bit_random;
#X obj 531 163 select 32;
#X obj 539 207 alternate;
#X obj 536 236 bng 15 250 50 0 empty empty empty 17 7 0 10 -262144
-1 -1;
#X obj 536 255 s space_set;
#X obj 585 234 bng 15 250 50 0 empty empty empty 17 7 0 10 -262144
-1 -1;
#X obj 585 253 s space_reset;
#X obj 601 186 s space_on;
#X connect 0 0 6 0;
#X connect 0 0 17 0;
#X connect 0 0 21 0;
#X connect 0 0 29 0;
#X connect 0 0 32 0;
#X connect 0 0 38 0;
#X connect 1 0 0 1;
#X connect 2 0 3 0;
#X connect 2 0 0 0;
#X connect 5 0 4 0;
#X connect 6 0 5 0;
#X connect 6 1 7 0;
#X connect 6 2 12 0;
#X connect 6 3 12 1;
#X connect 6 4 12 2;
#X connect 6 5 9 0;
#X connect 6 6 13 0;
#X connect 6 7 13 1;
#X connect 6 8 13 2;
#X connect 7 0 8 0;
#X connect 9 0 10 0;
#X connect 12 0 11 0;
#X connect 13 0 14 0;
#X connect 16 0 18 0;
#X connect 17 0 16 0;
#X connect 17 1 16 1;
#X connect 17 2 16 2;
#X connect 19 0 20 0;
#X connect 21 1 19 0;
#X connect 21 2 19 1;
#X connect 21 3 19 2;
#X connect 22 0 23 0;
#X connect 25 0 24 0;
#X connect 26 0 24 0;
#X connect 27 0 24 0;
#X connect 28 0 24 0;
#X connect 29 0 22 0;
#X connect 29 1 25 0;
#X connect 29 2 26 0;
#X connect 29 3 27 0;
#X connect 29 4 28 0;
#X connect 30 0 25 0;
#X connect 32 0 31 0;
#X connect 32 1 37 0;
#X connect 32 2 33 0;
#X connect 32 3 33 1;
#X connect 32 4 33 2;
#X connect 32 5 35 0;
#X connect 32 6 35 1;
#X connect 32 7 35 2;
#X connect 33 0 34 0;
#X connect 35 0 36 0;
#X connect 38 0 39 0;
#X connect 38 0 44 0;
#X connect 39 0 40 0;
#X connect 39 1 42 0;
#X connect 40 0 41 0;
#X connect 42 0 43 0;
#X restore 248 11 pd keys;
#X obj 118 14 tgl 15 0 keys_tgl empty Toggle\ Key\ control 17 7 0 10
-262144 -1 -1 0 1;
#X obj 38 304 *~;
#X obj 74 330 vsl 40 20 0.01 1 1 0 empty osc_mixer osc\ mixer 0 -9
0 10 -262144 -1 -1 1694 1;
#X obj 52 284 expr if($f1 <= 0.01 \, 0 \, $f1);
#X obj 234 198 bit-crusher;
#X floatatom 297 175 5 0 0 0 - bit_num -, f 5;
#X obj 235 60 *~;
#X obj 259 62 vsl 40 20 0.01 5 1 0 empty mic_mixer mic\ mixer 0 -9
0 10 -262144 -1 -1 1900 1;
#X obj 249 40 expr if($f1 <= 0.01 \, 0 \, $f1);
#X text 105 308 osc mixer;
#X text 305 65 mic mixer;
#X obj 317 449 dac~;
#X obj 265 174 tgl 15 0 empty bit_IO empty 17 7 0 10 -262144 -1 -1
0 1;
#X text 237 152 bypass IO;
#N canvas 570 439 522 443 del_glitch 0;
#X obj 412 303 samphold~;
#X obj 508 210 random 800;
#X obj 508 232 + 200;
#X obj 508 186 metro 200;
#X floatatom 508 256 5 0 0 0 - - -, f 5;
#X obj 591 225 + 20;
#X obj 508 280 phasor~ 1000;
#X obj 351 266 delread~ glitch1 90;
#X obj 303 326 hip~ 80;
#X obj 591 203 random 800;
#X obj 320 216 *~ 0.8;
#X obj 353 112 inlet;
#X text 353 92 feedback;
#X obj 303 369 outlet~;
#X obj 410 124 inlet;
#X obj 301 102 inlet;
#X text 298 83 delay time;
#X obj 320 242 delwrite~ glitch1 2000;
#X obj 207 105 inlet~;
#X text 208 83 input;
#X obj 207 225 spigot~;
#X obj 254 104 inlet;
#X text 251 85 bypass;
#X msg 509 159 1;
#X floatatom 592 251 5 0 0 0 - - -, f 5;
#X obj 508 139 loadbang;
#X text 407 108 bit random IO;
#X obj 352 289 spigot~;
#X obj 410 150 float;
#X obj 353 151 f;
#X obj 301 144 f;
#X obj 254 165 f;
#X obj 263 136 bng 15 250 50 0 empty space_reset empty 17 7 0 10 -262144
-1 -1;
#X obj 309 124 bng 15 250 50 0 empty space_reset empty 17 7 0 10 -262144
-1 -1;
#X obj 384 135 bng 15 250 50 0 empty space_reset empty 17 7 0 10 -262144
-1 -1;
#X obj 453 132 bng 15 250 50 0 empty space_reset empty 17 7 0 10 -262144
-1 -1;
#X msg 267 213 1;
#X obj 268 194 bng 15 250 50 0 empty space_set empty 17 7 0 10 -262144
-1 -1;
#X obj 375 168 bng 15 250 50 0 empty space_set empty 17 7 0 10 -262144
-1 -1;
#X msg 447 209 1;
#X obj 448 190 bng 15 250 50 0 empty space_set empty 17 7 0 10 -262144
-1 -1;
#X obj 328 161 bng 15 250 50 0 empty space_set empty 17 7 0 10 -262144
-1 -1;
#X msg 327 180 500;
#X msg 374 187 1.1;
#X connect 0 0 8 0;
#X connect 1 0 2 0;
#X connect 2 0 4 0;
#X connect 3 0 1 0;
#X connect 3 0 9 0;
#X connect 4 0 6 0;
#X connect 5 0 3 1;
#X connect 5 0 24 0;
#X connect 6 0 0 1;
#X connect 7 0 27 0;
#X connect 8 0 10 0;
#X connect 8 0 13 0;
#X connect 9 0 5 0;
#X connect 10 0 17 0;
#X connect 11 0 29 0;
#X connect 14 0 28 0;
#X connect 15 0 30 0;
#X connect 18 0 20 0;
#X connect 20 0 13 0;
#X connect 20 1 17 0;
#X connect 21 0 31 0;
#X connect 23 0 3 0;
#X connect 25 0 23 0;
#X connect 27 0 8 0;
#X connect 27 1 0 0;
#X connect 27 1 13 0;
#X connect 28 0 27 1;
#X connect 29 0 10 1;
#X connect 30 0 7 0;
#X connect 31 0 20 1;
#X connect 32 0 31 0;
#X connect 33 0 30 0;
#X connect 34 0 29 0;
#X connect 35 0 28 0;
#X connect 36 0 20 1;
#X connect 37 0 36 0;
#X connect 38 0 43 0;
#X connect 38 0 10 1;
#X connect 39 0 27 1;
#X connect 40 0 39 0;
#X connect 40 0 27 1;
#X connect 41 0 42 0;
#X connect 41 0 7 0;
#X connect 42 0 7 0;
#X connect 43 0 10 1;
#X restore 324 258 pd del_glitch;
#X obj 399 227 tgl 15 0 empty bit_random empty 17 7 0 10 -262144 -1
-1 0 1;
#X text 415 228 bit depth randomizer;
#X floatatom 361 171 5 0 0 1 delaytime del_time -, f 5;
#X obj 380 206 hsl 50 15 0 1 0 0 empty del_feedback delay\ feedback
-2 -8 0 10 -262144 -1 -1 0 1;
#X obj 342 151 tgl 15 0 empty del_IO Delay\ IO 17 7 0 10 -262144 -1
-1 0 1;
#X obj 351 283 tgl 37 0 _NONE space_on space\ set 50 7 0 10 -262144
-1 -1 0 1;
#X obj 33 22 hip~ 90;
#N canvas 706 88 661 364 keys 0;
#X obj 124 35 spigot;
#X obj 157 4 tgl 15 0 empty keys_tgl empty 17 7 0 10 -262144 -1 -1
0 1;
#X obj 124 4 key;
#X floatatom 78 31 5 0 0 0 - - -, f 5;
#X obj 3 282 s osc1_IO;
#X obj 3 262 bng 15 250 50 0 empty empty empty 17 7 0 10 -262144 -1
-1;
#X obj 3 147 select 49 50 119 115 120 51 101 100 99;
#X obj 28 178 bng 16 250 50 0 empty empty empty 17 7 0 10 -262144 -1
-1;
#X obj 28 198 s osc2_IO;
#X obj 128 174 bng 15 250 50 0 empty empty empty 17 7 0 10 -262144
-1 -1;
#X obj 128 194 s osc3_IO;
#X obj 35 259 s osc2_detune;
#N canvas 441 380 450 300 detune_count 0;
#X obj 113 148 float;
#X obj 164 148 +;
#X obj 111 103 t b f;
#X obj 57 39 inlet;
#X obj 97 50 inlet;
#X obj 142 57 inlet;
#X obj 164 174 outlet;
#X msg 57 82 0.05;
#X msg 142 81 -0.05, f 6;
#X msg 99 70 0;
#X connect 0 0 1 0;
#X connect 1 0 0 1;
#X connect 1 0 6 0;
#X connect 2 0 0 0;
#X connect 2 1 1 1;
#X connect 3 0 7 0;
#X connect 4 0 9 0;
#X connect 5 0 8 0;
#X connect 7 0 2 0;
#X connect 8 0 2 0;
#X connect 9 0 0 0;
#X connect 9 0 2 0;
#X connect 9 0 1 0;
#X restore 35 238 pd detune_count;
#N canvas 561 573 450 300 detune_count 0;
#X obj 113 148 float;
#X obj 164 148 +;
#X obj 111 103 t b f;
#X obj 57 39 inlet;
#X obj 97 50 inlet;
#X obj 142 57 inlet;
#X obj 164 174 outlet;
#X msg 57 82 0.05;
#X msg 142 81 -0.05, f 6;
#X msg 99 70 0;
#X connect 0 0 1 0;
#X connect 1 0 0 1;
#X connect 1 0 6 0;
#X connect 2 0 0 0;
#X connect 2 1 1 1;
#X connect 3 0 7 0;
#X connect 4 0 9 0;
#X connect 5 0 8 0;
#X connect 7 0 2 0;
#X connect 8 0 2 0;
#X connect 9 0 0 0;
#X connect 9 0 2 0;
#X connect 9 0 1 0;
#X restore 135 238 pd detune_count;
#X obj 135 262 s osc3_detune;
#X text 16 132 OSCs selectors;
#N canvas 553 508 450 300 mixer_osc 0;
#X obj 113 148 float;
#X obj 164 148 +;
#X obj 111 103 t b f;
#X obj 57 39 inlet;
#X obj 97 50 inlet;
#X obj 142 57 inlet;
#X obj 165 219 outlet;
#X msg 57 82 0.05;
#X msg 142 81 -0.05, f 6;
#X msg 98 74 0;
#X obj 165 195 line;
#X obj 164 173 pack f 1000;
#X connect 0 0 1 0;
#X connect 1 0 0 1;
#X connect 1 0 11 0;
#X connect 2 0 0 0;
#X connect 2 1 1 1;
#X connect 3 0 7 0;
#X connect 4 0 9 0;
#X connect 5 0 8 0;
#X connect 7 0 2 0;
#X connect 8 0 2 0;
#X connect 9 0 0 0;
#X connect 9 0 2 0;
#X connect 9 0 1 0;
#X connect 10 0 6 0;
#X connect 11 0 10 0;
#X restore 3 77 pd mixer_osc;
#X obj 3 54 select 113 97 122;
#X obj 8 98 s osc_mixer;
#N canvas 80 629 450 300 mixer_osc 0;
#X obj 113 148 float;
#X obj 164 148 +;
#X obj 111 103 t b f;
#X obj 57 39 inlet;
#X obj 97 50 inlet;
#X obj 142 57 inlet;
#X obj 165 219 outlet;
#X msg 57 82 0.05;
#X msg 142 81 -0.05, f 6;
#X msg 99 70 0;
#X obj 165 195 line;
#X obj 164 173 pack f 1000;
#X connect 0 0 1 0;
#X connect 1 0 0 1;
#X connect 1 0 11 0;
#X connect 2 0 0 0;
#X connect 2 1 1 1;
#X connect 3 0 7 0;
#X connect 4 0 9 0;
#X connect 5 0 8 0;
#X connect 7 0 2 0;
#X connect 8 0 2 0;
#X connect 9 0 0 0;
#X connect 9 0 2 0;
#X connect 9 0 1 0;
#X connect 10 0 6 0;
#X connect 11 0 10 0;
#X restore 217 76 pd mixer_osc;
#X obj 217 99 s mic_mixer;
#X obj 188 51 select 53 116 103 98;
#X obj 270 196 bng 16 250 50 0 empty empty empty 17 7 0 10 -262144
-1 -1;
#X obj 270 216 s bit_IO;
#X obj 324 256 s bit_num;
#X msg 323 191 2500;
#X msg 371 202 1400;
#X msg 416 211 800;
#X msg 459 217 200;
#X obj 270 146 select 55 54 121 104 110;
#X obj 323 167 loadbang;
#X obj 391 117 s del_IO;
#X obj 392 13 select 56 57 105 107 44 111 108 46;
#N canvas 573 502 450 300 delaytime 0;
#X obj 113 148 float;
#X obj 164 148 +;
#X obj 111 103 t b f;
#X obj 57 39 inlet;
#X obj 97 50 inlet;
#X obj 142 57 inlet;
#X msg 57 82 20;
#X msg 142 81 -20, f 6;
#X msg 99 70 500;
#X obj 166 201 line;
#X obj 165 179 pack f 1000;
#X obj 166 227 outlet;
#X connect 0 0 1 0;
#X connect 1 0 0 1;
#X connect 1 0 10 0;
#X connect 2 0 0 0;
#X connect 2 1 1 1;
#X connect 3 0 6 0;
#X connect 4 0 8 0;
#X connect 5 0 7 0;
#X connect 6 0 2 0;
#X connect 7 0 2 0;
#X connect 8 0 0 0;
#X connect 8 0 2 0;
#X connect 8 0 1 0;
#X connect 9 0 11 0;
#X connect 10 0 9 0;
#X restore 442 49 pd delaytime;
#X obj 442 72 s del_time;
#N canvas 562 537 450 300 delayfeedback 0;
#X obj 113 148 float;
#X obj 164 148 +;
#X obj 111 103 t b f;
#X obj 57 39 inlet;
#X obj 107 20 inlet;
#X obj 142 57 inlet;
#X obj 166 201 line;
#X obj 165 179 pack f 1000;
#X obj 166 227 outlet;
#X msg 57 82 0.1;
#X msg 142 81 -0.1, f 6;
#X msg 109 40 0.25;
#X connect 0 0 1 0;
#X connect 1 0 0 1;
#X connect 1 0 7 0;
#X connect 2 0 0 0;
#X connect 2 1 1 1;
#X connect 3 0 9 0;
#X connect 4 0 11 0;
#X connect 5 0 10 0;
#X connect 6 0 8 0;
#X connect 7 0 6 0;
#X connect 9 0 2 0;
#X connect 10 0 2 0;
#X connect 11 0 0 0;
#X connect 11 0 2 0;
#X connect 11 0 1 0;
#X restore 517 72 pd delayfeedback;
#X obj 517 95 s del_feedback;
#X obj 417 94 s bit_random;
#X obj 531 163 select 32;
#X obj 539 207 alternate;
#X obj 536 236 bng 15 250 50 0 empty empty empty 17 7 0 10 -262144
-1 -1;
#X obj 536 255 s space_set;
#X obj 585 234 bng 15 250 50 0 empty empty empty 17 7 0 10 -262144
-1 -1;
#X obj 585 253 s space_reset;
#X obj 601 186 s space_on;
#X connect 0 0 6 0;
#X connect 0 0 17 0;
#X connect 0 0 21 0;
#X connect 0 0 29 0;
#X connect 0 0 32 0;
#X connect 0 0 38 0;
#X connect 1 0 0 1;
#X connect 2 0 3 0;
#X connect 2 0 0 0;
#X connect 5 0 4 0;
#X connect 6 0 5 0;
#X connect 6 1 7 0;
#X connect 6 2 12 0;
#X connect 6 3 12 1;
#X connect 6 4 12 2;
#X connect 6 5 9 0;
#X connect 6 6 13 0;
#X connect 6 7 13 1;
#X connect 6 8 13 2;
#X connect 7 0 8 0;
#X connect 9 0 10 0;
#X connect 12 0 11 0;
#X connect 13 0 14 0;
#X connect 16 0 18 0;
#X connect 17 0 16 0;
#X connect 17 1 16 1;
#X connect 17 2 16 2;
#X connect 19 0 20 0;
#X connect 21 1 19 0;
#X connect 21 2 19 1;
#X connect 21 3 19 2;
#X connect 22 0 23 0;
#X connect 25 0 24 0;
#X connect 26 0 24 0;
#X connect 27 0 24 0;
#X connect 28 0 24 0;
#X connect 29 0 22 0;
#X connect 29 1 25 0;
#X connect 29 2 26 0;
#X connect 29 3 27 0;
#X connect 29 4 28 0;
#X connect 30 0 25 0;
#X connect 32 0 31 0;
#X connect 32 1 37 0;
#X connect 32 2 33 0;
#X connect 32 3 33 1;
#X connect 32 4 33 2;
#X connect 32 5 35 0;
#X connect 32 6 35 1;
#X connect 32 7 35 2;
#X connect 33 0 34 0;
#X connect 35 0 36 0;
#X connect 38 0 39 0;
#X connect 38 0 44 0;
#X connect 39 0 40 0;
#X connect 39 1 42 0;
#X connect 40 0 41 0;
#X connect 42 0 43 0;
#X restore 394 406 pd keys;
#X obj 88 30 r osc1;
#X obj 174 32 r osc3;
#X obj 132 32 r osc2;
#X connect 0 0 30 0;
#X connect 1 0 10 0;
#X connect 1 1 10 0;
#X connect 1 2 10 0;
#X connect 3 0 1 1;
#X connect 4 0 1 2;
#X connect 5 0 1 4;
#X connect 6 0 1 3;
#X connect 7 0 1 5;
#X connect 10 0 2 0;
#X connect 10 0 2 1;
#X connect 11 0 12 0;
#X connect 12 0 10 1;
#X connect 13 0 23 0;
#X connect 14 0 13 2;
#X connect 15 0 13 0;
#X connect 16 0 17 0;
#X connect 17 0 15 1;
#X connect 21 0 13 1;
#X connect 23 0 20 0;
#X connect 23 0 20 1;
#X connect 24 0 23 4;
#X connect 26 0 23 2;
#X connect 27 0 23 3;
#X connect 28 0 23 1;
#X connect 30 0 15 0;
#X connect 30 0 1 0;
#X connect 32 0 3 0;
#X connect 33 0 5 0;
#X connect 34 0 4 0;
