#N canvas 41 165 458 443 10;
#X obj 20 -16 inlet~;
#X obj 20 27 fiddle~ 1024 1 20 3;
#X text 19 -34 audio input;
#X obj 20 58 pack f 50;
#X obj 20 80 line;
#X obj 21 228 mtof;
#X obj 21 256 osc~;
#X obj 59 335 outlet~;
#X obj 169 222 mtof;
#X obj 169 280 osc~;
#X obj 208 52 inlet;
#X obj 169 201 * 1;
#X obj 242 92 inlet;
#X text 206 32 osc2 IO;
#X text 248 71 detune;
#X obj 242 162 pack f 50;
#X obj 242 184 line;
#X obj 319 220 mtof;
#X obj 319 278 osc~;
#X obj 358 74 inlet;
#X obj 319 199 * 1;
#X obj 392 110 inlet;
#X text 398 89 detune;
#X obj 392 130 pack f 50;
#X obj 392 152 line;
#X text 356 54 osc3 IO;
#X obj 60 95 inlet;
#X text 83 77 osc1 IO;
#X obj 117 -34 loadbang;
#X obj 169 250 pipe 0;
#X obj 319 248 pipe 0;
#X obj 21 307 spigot~;
#X obj 169 330 spigot~;
#X obj 319 329 spigot~;
#X msg 222 -9 npartial 5;
#X obj 242 207 + 1;
#X msg 118 -8 reattack 200 10;
#X obj 393 175 + 1;
#X obj 208 353 outlet~;
#X obj 358 355 outlet~;
#X obj 419 335 outlet;
#X obj 21 282 *~ 0.5;
#X obj 169 306 *~ 0.5;
#X obj 319 304 *~ 0.5;
#X connect 0 0 1 0;
#X connect 1 0 3 0;
#X connect 1 3 40 0;
#X connect 3 0 4 0;
#X connect 4 0 5 0;
#X connect 4 0 11 0;
#X connect 4 0 20 0;
#X connect 5 0 6 0;
#X connect 6 0 41 0;
#X connect 8 0 29 0;
#X connect 9 0 42 0;
#X connect 10 0 32 1;
#X connect 11 0 8 0;
#X connect 12 0 15 0;
#X connect 15 0 16 0;
#X connect 16 0 35 0;
#X connect 17 0 30 0;
#X connect 18 0 43 0;
#X connect 19 0 33 1;
#X connect 20 0 17 0;
#X connect 21 0 23 0;
#X connect 23 0 24 0;
#X connect 24 0 37 0;
#X connect 26 0 31 1;
#X connect 28 0 36 0;
#X connect 28 0 34 0;
#X connect 29 0 9 0;
#X connect 30 0 18 0;
#X connect 31 1 7 0;
#X connect 32 1 38 0;
#X connect 33 1 39 0;
#X connect 34 0 1 0;
#X connect 35 0 11 1;
#X connect 36 0 1 0;
#X connect 37 0 20 1;
#X connect 41 0 31 0;
#X connect 42 0 32 0;
#X connect 43 0 33 0;
